<?xml version="1.0" encoding="utf-8"?>
<!-- Generator: Adobe Illustrator 24.0.2, SVG Export Plug-In . SVG Version: 6.00 Build 0)  -->
<svg version="1.1" id="Layer_1" xmlns="http://www.w3.org/2000/svg" xmlns:xlink="http://www.w3.org/1999/xlink" x="0px" y="0px"
	 viewBox="0 0 270 270" style="enable-background:new 0 0 1284.13 271.03;" xml:space="preserve">
<style type="text/css">
	.st0{fill:#FFFFFF;}
</style>

	<path class="st0" d="M239.02,135.78c0-3.22-0.15-6.47-0.45-9.67c-0.03-0.32-0.32-0.56-0.65-0.53l-0.89,0.09
		c-0.32,0.03-0.55,0.32-0.52,0.64c0.29,3.13,0.44,6.32,0.44,9.47c0,55.48-45.14,100.62-100.62,100.62
		c-55.48,0-100.62-45.14-100.62-100.62c0-26.11,9.95-50.85,28.03-69.68c17.89-18.63,41.87-29.56,67.59-30.82
		c0.32-0.02,0.57-0.29,0.56-0.61l-0.04-0.89c-0.01-0.33-0.29-0.58-0.62-0.57C104.98,34.5,80.5,45.66,62.25,64.67
		c-18.45,19.21-28.61,44.47-28.61,71.11c0,56.62,46.07,102.69,102.69,102.69C192.95,238.47,239.02,192.4,239.02,135.78z"/>
	<path class="st0" d="M136.57,0.72c-35.94,0-69.74,14-95.15,39.41C16,65.55,2,99.34,2,135.29c0,27.69,8.33,54.25,24.1,76.87
		c0.19,0.27,0.56,0.33,0.83,0.15l0.72-0.51c0.27-0.19,0.33-0.55,0.14-0.82c-15.69-22.5-23.9-48.96-23.73-76.52
		c0.22-35.38,14.67-69.32,39.99-94.03c24.91-24.31,57.73-37.66,92.6-37.64c35.13,0.03,68.76,13.97,93.6,38.81
		c25.13,25.13,38.93,58.59,38.81,94.15c-0.12,35.03-14.04,68.47-38.81,93.24c-25.03,25.03-58.3,38.81-93.69,38.81
		c-3.92,0-7.87-0.17-11.76-0.51c-0.32-0.03-0.61,0.21-0.64,0.53l-0.08,0.88c-0.03,0.33,0.21,0.62,0.54,0.65
		c3.95,0.35,7.96,0.52,11.94,0.52c35.94,0,69.74-14,95.15-39.41c25.42-25.42,39.41-59.21,39.41-95.15s-14-69.74-39.41-95.15
		C206.31,14.72,172.51,0.72,136.57,0.72z"/>
	<path class="st0" d="M134.93,51.76c-0.13,0.05-0.26,0.08-0.38,0.11c-0.18,0.05-0.34,0.1-0.5,0.16c-1.18,0.39-2.21,1.18-2.88,2.19
		c-0.13,0.13-0.2,0.26-0.26,0.38c-0.13,0.26-0.39,0.44-0.68,0.45c-0.17,0.03-0.32,0.06-0.47,0.08c-0.15,0.03-0.3,0.05-0.46,0.08
		c-1.23,0.2-2.51,0.5-4.04,0.94c-5.87,1.65-11.32,4.74-15.76,8.96c-3.14,2.97-5.72,6.47-7.69,10.4c-0.06,0.11-0.11,0.24-0.17,0.37
		c-0.05,0.12-0.11,0.24-0.15,0.33c-0.15,0.22-0.12,0.49,0.07,0.67c0.14,0.17,0.27,0.33,0.4,0.48l0.37,0.45
		c0.51,0.6,1.16,1.4,1.69,2.29c0.49,0.74,0.97,1.61,1.47,2.67c1.31,2.74,2.3,5.27,3.01,7.73c0.34,1.1,0.64,2.26,0.93,3.38
		c0.13,0.5,0.26,1.01,0.39,1.51c0.17,0.66,0.33,1.31,0.5,1.95c0.17,0.65,0.33,1.29,0.5,1.97c0.06,0.18,0.16,0.34,0.48,0.35
		l3.36-0.39c0.71-0.11,1.36-0.16,2.08-0.22l1.7-0.16c0.72-0.05,1.48-0.11,2.25-0.16l2.58-0.16c1.1-0.05,2.2-0.11,3.19-0.16
		l0.15-0.01c0.94-0.05,1.82-0.1,2.76-0.1c2.81-0.08,5.73-0.13,8.54-0.08c0.87,0.01,1.73,0.03,2.62,0.03c1.17,0,2.36,0.05,3.51,0.1
		c0.59,0.03,1.17,0.05,1.77,0.07c0.24,0,0.47,0.01,0.7,0.03c0.24,0.01,0.46,0.03,0.72,0.03l2.75,0.16l2.91,0.22
		c0.5,0.06,0.99,0.11,1.54,0.17l3.24,0.33l3,0.39h0.17c0.14,0,0.23-0.1,0.3-0.17c0.1-0.1,0.11-0.21,0.11-0.28
		c0.14-0.51,0.27-1.01,0.41-1.51c0.14-0.51,0.28-1.02,0.41-1.54l0.05-0.22c0.09-0.38,0.19-0.77,0.33-1.16
		c0.03-0.13,0.07-0.25,0.1-0.36c0.04-0.13,0.09-0.26,0.11-0.4c0.54-1.99,1.1-4.06,1.81-6.04c0.68-1.99,1.45-3.84,2.35-5.64
		c1.02-1.98,2.16-3.7,3.49-5.23l0.09-0.1c0.35-0.28,0.36-0.75,0.18-1.08l-0.02-0.09c-5.11-10.6-15.09-18.25-26.71-20.46
		c-0.6-0.11-1.26-0.22-1.91-0.33l-0.05-0.01c-0.21,0-0.4-0.13-0.48-0.32l-0.03-0.07l-0.03-0.03c-0.01-0.03-0.03-0.07-0.07-0.11
		c-0.73-1.27-1.96-2.2-3.45-2.6c-0.14-0.05-0.28-0.09-0.45-0.14c-0.01-0.02-0.02-0.05-0.03-0.08c-0.02-0.04-0.04-0.1-0.05-0.11
		c-0.05-0.7-0.05-1.41-0.01-2.07l0.04-0.13l0,0l0.06-0.06c0.02-0.01,0.11-0.01,0.15-0.01h0.88c0.12,0,0.24-0.01,0.35-0.03
		c0.1-0.01,0.2-0.03,0.31-0.03c0.21,0,0.36-0.19,0.36-0.32l0.06-0.29c0.06-0.39,0.01-0.73-0.04-1.08l-0.01-0.04
		c0-0.19-0.15-0.33-0.31-0.35c-0.14-0.06-0.27-0.06-0.38-0.06l-0.98,0.01c-0.16,0.04-0.33,0-0.46-0.04l-0.06-0.06
		c-0.01-0.02-0.01-0.11-0.01-0.15v-2.09l-0.03-0.11l-0.06-0.06c-0.05-0.07-0.15-0.19-0.33-0.19h-1.38c-0.2,0-0.47,0.04-0.47,0.41
		l0,2.02c0,0.01-0.01,0.03-0.01,0.05c-0.01,0.04-0.03,0.09-0.04,0.15l-0.04,0.04c-0.02,0.01-0.11,0.01-0.15,0.01h-0.88
		c-0.23,0-0.52,0-0.72,0.05c-0.16,0-0.36,0.2-0.35,0.31c-0.12,0.47-0.12,1,0.02,1.51c0.04,0.07,0.14,0.27,0.39,0.27h1.71
		c0.05,0,0.08,0.02,0.08,0.03l0,2.31C135.01,51.69,134.97,51.74,134.93,51.76z M133.91,70.68c0.46-0.41,1.02-0.67,1.67-0.78
		c0.2-0.04,0.41-0.05,0.62-0.05c0.38,0,0.77,0.05,1.16,0.16c0.51,0.15,0.98,0.41,1.36,0.73c0.87,0.76,1.49,1.82,1.7,2.92
		c0.11,0.54,0.16,1.09,0.16,1.67l0,9.29c0,0.01-0.03,0.03-0.08,0.03l-8.46,0c-0.01,0-0.03-0.03-0.03-0.08v-9.74
		c0-0.61,0.07-1.11,0.21-1.55C132.45,72.34,133.06,71.42,133.91,70.68z M133.44,63.13c0.36,0.15,0.68,0.27,1.12,0.39
		c1.21,0.33,2.56,0.25,3.8-0.22l0.46-0.15c-0.11,0.56-0.17,1.08-0.22,1.61c-0.05,0.76-0.17,1.54-0.28,2.32
		c0,0.31-0.05,0.61-0.11,0.96l-1.54-0.33c-0.17-0.03-0.36-0.04-0.56-0.04c-0.2,0-0.41,0.01-0.62,0.05L134.24,68
		c-0.05,0.03-0.1,0.03-0.17,0.03l-0.04-0.04l-0.28-2.3c-0.06-0.78-0.17-1.56-0.28-2.36C133.45,63.27,133.44,63.2,133.44,63.13z
		 M130.98,61.43c0.03-0.01,0.04-0.01,0.04-0.01c0.01,0.01,0.02,0.03,0.04,0.09l0.05,0.08c0,0.01,0,0.06,0.01,0.12
		c0.06,0.38,0.1,0.75,0.14,1.14c0.04,0.35,0.08,0.7,0.13,1.06c0.05,0.38,0.11,0.78,0.16,1.18c0.06,0.4,0.11,0.8,0.17,1.18l0.33,2.72
		c0.04,0.16,0,0.31-0.11,0.42l-0.04,0.05c-0.04,0.08-0.14,0.18-0.25,0.29c-1.01,1.12-1.64,2.53-1.81,4.06
		c-0.11,0.73-0.11,1.41-0.11,2.12v7.81l0.02,0.85l-1.45,0.08c0,0-0.07-0.05-0.08-0.24c-0.03-0.21-0.03-0.35-0.03-0.58l-0.17-4.57
		c0-1.21-0.06-2.45-0.11-3.65c-0.06-0.65-0.12-1.19-0.28-1.79c-0.29-1.17-0.94-2.24-1.81-3.01c-0.44-0.44-1-0.84-1.58-1.13
		c-1-0.56-2.2-0.8-3.35-0.68c-1.59,0.11-3.02,0.86-4.04,2.1c-0.82,0.93-1.36,2.01-1.59,3.12c-0.13,0.76-0.16,1.42-0.11,2.03
		c0.06,0.72,0.17,1.46,0.33,2.17c0.44,2.37,0.94,4.77,1.43,7.1l0,0.04l0.04,0.04c0.01,0.02,0.01,0.06,0.01,0.06h0
		c-0.01,0.01-0.02,0.03-0.04,0.04c-0.08,0.04-0.16,0.08-0.25,0.08l-1.02,0.16h-0.12c-0.1-0.17-0.14-0.34-0.19-0.58
		c-0.66-2.03-1.51-4.16-2.6-6.52l-0.5-1c-0.56-0.95-1.4-1.75-2.39-2.28l-0.19-0.09c-0.04-0.03-0.12-0.09-0.13-0.08
		c0,0,0.01-0.03,0.07-0.11c2.08-3.29,4.84-6.2,7.98-8.42c3.19-2.25,6.7-3.89,10.44-4.86C128.9,61.83,129.92,61.6,130.98,61.43z
		 M126.22,84.34v0.5c0,0.06-0.02,0.08-0.1,0.08l-6.81,0.55c0,0-0.01-0.01-0.04-0.06c-0.02-0.03-0.03-0.09-0.04-0.14
		c-0.01-0.07-0.03-0.14-0.06-0.22l-0.22-1.02c-0.43-1.99-0.83-3.87-1.21-5.83c-0.06-0.3-0.11-0.59-0.17-0.88
		c-0.05-0.29-0.11-0.58-0.16-0.88c-0.26-1.47,0.25-2.99,1.39-4.08c0.25-0.3,0.56-0.51,0.94-0.73c0.76-0.46,1.75-0.57,2.66-0.31
		c1.62,0.42,2.84,1.66,3.27,3.33c0.1,0.35,0.16,0.77,0.16,1.16c0.05,1.43,0.11,2.91,0.16,5C125.99,81.6,126.11,83,126.22,84.34z
		 M130.49,59.35C130.49,59.35,130.49,59.35,130.49,59.35C130.48,59.35,130.48,59.35,130.49,59.35
		C130.48,59.35,130.48,59.35,130.49,59.35z M104.96,74.92c5.05-8.73,13.55-14.95,23.31-17.07c0.44-0.11,0.93-0.22,1.43-0.33
		c0.1-0.03,0.2-0.04,0.31-0.05c0.09-0.01,0.18-0.02,0.28-0.04v0.13c0,0.53,0.06,1.09,0.16,1.54v0.26c-0.08,0.02-0.15,0.03-0.22,0.04
		c-0.11,0.02-0.21,0.03-0.28,0.06c-2.92,0.51-5.73,1.4-8.36,2.66c-4.15,1.96-7.76,4.66-10.73,8.02c-0.98,1.13-1.92,2.38-2.89,3.83
		c-0.12,0.23-0.28,0.49-0.42,0.69l-0.03,0.06c-0.02,0.07-0.12,0.09-0.19,0.09l-0.66-0.05l-0.02,0c-0.55,0-1.13,0.03-1.73,0.25
		C104.94,74.97,104.95,74.95,104.96,74.92z M110.26,87.19c-0.03,0.02-0.09,0.03-0.14,0.04c-0.06,0.01-0.12,0.02-0.18,0.05
		c-0.01,0-0.02-0.01-0.03-0.02c-0.01-0.03-0.02-0.06-0.03-0.1c-0.02-0.06-0.03-0.13-0.06-0.18c-0.54-1.61-1.24-3.3-2.21-5.3
		c-0.68-1.41-1.56-2.87-2.59-4.29l-0.14-0.27l0.01,0c1.03-0.29,1.97-0.3,2.87-0.06c0.33,0.09,0.69,0.24,1.07,0.43
		c0.78,0.36,1.41,1,1.78,1.78c0.59,1.29,1.2,2.63,1.7,4c0.17,0.47,0.33,0.92,0.5,1.38c0.16,0.45,0.33,0.91,0.49,1.37
		c0.04,0.12,0.08,0.23,0.09,0.33c-0.1,0.06-0.18,0.1-0.29,0.13L110.26,87.19z M162.02,89.26l-0.16,0.47
		c-0.22,0.65-0.43,1.27-0.61,1.94c-0.11,0.41-0.23,0.81-0.36,1.2c-0.12,0.4-0.25,0.8-0.36,1.21l-0.99,3.14l-0.02,0.03
		c-0.06,0.16-0.29,0.08-0.48,0.05l-4.86-0.55c-0.38-0.03-0.78-0.07-1.18-0.11c-0.4-0.04-0.8-0.08-1.19-0.11l-5.49-0.38l-0.51-0.06
		c-0.62-0.02-1.25-0.04-1.87-0.07c-1.23-0.05-2.5-0.1-3.75-0.1c-0.8,0-1.59-0.01-2.39-0.03c-0.8-0.01-1.59-0.03-2.39-0.03
		c0,0,0,0-0.01,0c-0.99,0.03-1.96,0.04-2.94,0.05c-0.98,0.01-1.95,0.03-2.94,0.06c-1,0-2,0.06-2.98,0.11l-3.19,0.17
		c-0.93,0.05-1.82,0.11-2.7,0.17l-3.97,0.33l-2.03,0.22l-1.85,0.16c-0.11,0-0.13-0.03-0.15-0.09c-0.05-0.16-0.11-0.38-0.16-0.59
		c-0.23-0.91-0.48-1.83-0.72-2.75c-0.33-1.26-0.67-2.53-1-3.83c-0.1-0.2-0.15-0.4-0.2-0.57c0-0.02,0-0.03,0.03-0.05l0.39-0.15
		c1.13-0.34,2.22-0.61,3.34-0.82c0.85-0.18,1.75-0.31,2.61-0.44c0.47-0.07,0.94-0.14,1.39-0.22c0.38-0.05,0.78-0.1,1.17-0.14
		c0.4-0.04,0.8-0.08,1.19-0.14c0.98-0.11,2.02-0.22,3.07-0.33c0.33-0.03,0.63-0.04,0.93-0.05c0.3-0.01,0.61-0.03,0.94-0.06
		c0.33-0.03,0.67-0.04,1.01-0.05c0.35-0.01,0.69-0.03,1.02-0.06c2.4-0.11,4.86-0.16,7.31-0.16c1.49,0,2.99,0.05,4.44,0.1
		c0.75,0.02,1.5,0.05,2.27,0.07c0.77,0,1.58,0.05,2.36,0.1c0.39,0.02,0.77,0.05,1.14,0.07l6.27,0.44c0.93,0.05,1.82,0.17,2.69,0.27
		c1.24,0.16,2.52,0.33,3.78,0.55l0.11,0.02c1.12,0.21,2.24,0.43,3.3,0.64c0.13,0.03,0.25,0.06,0.36,0.1
		c0.11,0.04,0.23,0.08,0.35,0.1C162.03,89.15,162.02,89.21,162.02,89.26z M153.22,85.36l-0.05,0.05h-0.36c-0.33,0-0.59,0-0.92-0.05
		l-5.4-0.46l-0.14,0v-0.22c0-0.87,0-1.7,0.05-2.51c0.03-0.31,0.04-0.61,0.06-0.92c0.01-0.3,0.03-0.6,0.05-0.9l0-0.01
		c0.06-1.38,0.06-2.75,0.06-4.08c0-0.38,0.04-0.72,0.09-1.11l0.02-0.13c0.05-0.43,0.19-0.85,0.42-1.25
		c0.44-0.77,1.08-1.45,1.81-1.91c1.56-0.99,3.68-0.72,4.92,0.62c0.63,0.74,1.02,1.54,1.17,2.38c0.11,0.63,0.11,1.22,0,1.8
		c-0.11,0.5-0.21,0.99-0.3,1.49c-0.1,0.49-0.19,0.99-0.3,1.49c-0.14,0.74-0.29,1.48-0.44,2.22c-0.15,0.74-0.3,1.49-0.44,2.22
		l-0.28,1.2C153.22,85.3,153.22,85.36,153.22,85.36z M167.58,77.23c-0.04,0.06-0.07,0.12-0.13,0.18c-0.82,1.13-1.61,2.44-2.33,3.88
		c-0.84,1.62-1.62,3.42-2.33,5.38c-0.02,0.1-0.06,0.19-0.1,0.27c-0.04,0.09-0.07,0.17-0.1,0.27c-0.02,0.01-0.04,0.03-0.05,0.03
		h-0.09l-3.17-0.82l-0.05-0.01c-0.02,0-0.08,0-0.08,0l-0.04-0.04c0.02-0.04,0.03-0.08,0.04-0.12c0.01-0.03,0.02-0.07,0.05-0.13
		c0.64-1.91,1.46-3.99,2.53-6.37c0.07-0.18,0.17-0.36,0.26-0.53c0.04-0.08,0.08-0.16,0.12-0.22c0.38-0.7,0.9-1.21,1.57-1.52
		c0.92-0.49,1.89-0.69,2.85-0.58l0.07,0.01c0.32,0.05,0.69,0.1,1.01,0.22c0.01,0.01,0.01,0.02,0.02,0.03
		C167.61,77.17,167.59,77.2,167.58,77.23z M142.14,59.2c0.02-0.06,0.03-0.13,0.03-0.17c0.05-0.26,0.11-0.61,0.11-0.97
		c0-0.1,0.01-0.22,0.03-0.34c0.01-0.13,0.03-0.26,0.03-0.38c0.01-0.01,0.03-0.02,0.07-0.02c0.55,0.11,1.15,0.22,1.79,0.32
		c4.06,0.87,8.09,2.51,11.65,4.76c4.77,3.01,8.78,7.16,11.58,11.94c0.04,0.13,0.13,0.27,0.21,0.39c0.03,0.05,0.06,0.1,0.08,0.13
		c0.01,0.02,0.02,0.04,0.02,0.05c-0.02,0-0.02,0-0.03,0c-0.55-0.13-1.13-0.19-1.69-0.19c-0.19,0-0.37,0.01-0.55,0.02h-0.28
		c-0.08,0-0.18-0.01-0.2-0.09l-0.01-0.04l-0.06-0.05c-4.61-7.41-12.11-12.79-20.58-14.77c-0.33-0.08-0.68-0.15-1.03-0.22
		c-0.34-0.07-0.68-0.14-1-0.21l-0.2-0.04C142.11,59.29,142.12,59.24,142.14,59.2z M140.21,68.94c0.01-0.1,0.03-0.21,0.03-0.31
		c0.11-0.93,0.22-1.81,0.33-2.69l0.33-2.31c0.03-0.22,0.06-0.45,0.08-0.69c0.03-0.23,0.05-0.47,0.08-0.66
		c0.03-0.12,0.04-0.25,0.06-0.38c0.01-0.11,0.02-0.23,0.08-0.35c0.21,0,0.48,0.03,0.85,0.11c1.02,0.17,1.99,0.39,2.89,0.66
		c4.59,1.31,8.73,3.59,12.3,6.78c1.89,1.78,3.43,3.53,4.71,5.37c0.16,0.21,0.32,0.43,0.43,0.64l0.13,0.21
		c0.06,0.1,0.13,0.2,0.14,0.2c-0.02,0.03-0.15,0.1-0.27,0.17l-0.15,0.09c-1.11,0.64-2,1.61-2.5,2.72c-0.32,0.64-0.6,1.26-0.88,1.93
		c-0.72,1.61-1.34,3.29-1.94,4.93c-0.05,0.19-0.15,0.45-0.26,0.68l-0.02,0l-1.37-0.21c-0.01-0.01-0.01-0.01-0.01-0.01
		c0.02-0.14,0.06-0.29,0.09-0.45c0.05-0.21,0.1-0.43,0.13-0.65c0.43-2,0.88-4.07,1.27-6.11l0.33-1.82c0.29-1.68-0.07-3.37-1.02-4.76
		c-0.4-0.6-0.79-1.06-1.18-1.41c-0.84-0.78-1.97-1.31-3.19-1.48c-1.24-0.17-2.53,0.09-3.64,0.74c-1.63,0.87-2.87,2.44-3.39,4.3
		c-0.12,0.42-0.17,0.77-0.17,1.14c-0.03,0.5-0.04,0.99-0.06,1.49c-0.01,0.49-0.03,0.99-0.05,1.48l-0.17,4.79
		c0,0.24-0.01,0.47-0.03,0.7c-0.01,0.24-0.01,0.39-0.01,0.64c0,0.03-0.01,0.32-0.04,0.39l-0.16,0l-1.27-0.05
		c-0.01,0-0.03-0.03-0.03-0.08v-5.23c0-1.47,0-2.98-0.17-4.51c0-0.78-0.11-1.52-0.34-2.26c-0.37-1.23-0.96-2.26-1.75-3.05
		l-0.11-0.11c-0.07-0.07-0.11-0.18-0.11-0.3C140.19,69.12,140.2,69.03,140.21,68.94z M136.14,53.9c0.59,0,1.17,0.11,1.67,0.31
		c0.04,0.02,0.08,0.04,0.12,0.06c0.09,0.04,0.2,0.08,0.3,0.15c1.81,1.12,2.4,3.47,1.31,5.23c-0.43,0.7-1.01,1.21-1.73,1.52
		c-0.54,0.25-1.11,0.37-1.73,0.37c-0.32,0-0.57,0-0.88-0.1c-0.87-0.26-1.62-0.77-2.2-1.51c-0.31-0.49-0.49-0.9-0.58-1.3
		c-0.06-0.33-0.11-0.64-0.11-0.96C132.32,55.59,134.04,53.9,136.14,53.9z"/>
	<path class="st0" d="M127.48,208.67c-0.11-0.03-0.24-0.06-0.36-0.08c-0.12-0.03-0.24-0.05-0.35-0.08l-1.2-0.28h-0.22
		c-0.16,0-0.3,0.14-0.3,0.3v0.05l0.03,0.05c0.18,0.3,0.37,0.54,0.66,0.72c0.43,0.31,0.83,0.52,1.25,0.68
		c0.88,0.38,1.83,0.57,2.79,0.57c0.32,0,0.64-0.02,0.96-0.06c0.88-0.17,1.71-0.33,2.53-0.49c0.19-0.03,0.38-0.07,0.57-0.11
		c0.41-0.09,0.84-0.18,1.29-0.21c1.16-0.12,2.15-0.09,3.02,0.11c0.5,0.11,0.98,0.21,1.46,0.3c0.48,0.1,0.96,0.19,1.46,0.3
		c0.58,0.12,1.09,0.17,1.63,0.17c0.68,0,1.3-0.11,1.91-0.22c0.7-0.16,1.33-0.43,1.98-0.85c0.34-0.2,0.55-0.38,0.7-0.58
		c0.06-0.06,0.08-0.13,0.11-0.22l0.06-0.06v-0.44l-0.33,0c-0.34,0.05-0.75,0.14-1.22,0.28c-0.54,0.11-1.09,0.22-1.64,0.27
		c-0.85,0.11-1.72,0.05-2.57-0.16l-4.41-1.1c-0.57-0.11-1.21-0.11-1.82,0c-0.45,0.06-0.9,0.17-1.34,0.28
		c-0.55,0.14-1.08,0.27-1.61,0.41c-0.54,0.14-1.08,0.28-1.63,0.42C129.77,208.87,128.64,208.89,127.48,208.67z"/>
	<path class="st0" d="M106.56,201.47c0.28,0.28,0.57,0.57,0.92,0.74c0.75,0.46,1.59,0.79,2.43,0.96c0.77,0.13,1.37,0.16,1.97,0.11
		c0.49-0.04,0.98-0.13,1.45-0.21c0.24-0.04,0.47-0.08,0.72-0.12c1.02-0.22,2.08-0.44,3.12-0.6c0.72-0.12,1.36-0.16,1.93-0.11
		c0.6,0.05,1.21,0.17,1.79,0.27c0.55,0.12,1.1,0.23,1.66,0.34c0.45,0.09,0.9,0.17,1.35,0.27c0.51,0.15,1.07,0.23,1.71,0.23
		c0.51,0,1.03-0.05,1.57-0.1l0.16-0.02c0.96-0.16,1.87-0.53,2.78-1.14c0.23-0.17,0.46-0.35,0.63-0.57c0.06-0.06,0.08-0.13,0.11-0.22
		l0.06-0.06v-0.27l-0.06-0.06c-0.08-0.08-0.12-0.11-0.25-0.11c-0.18,0-0.36,0-0.55,0.06c-0.73,0.22-1.44,0.38-2.18,0.49
		c-0.85,0.16-1.72,0.16-2.56,0l-0.47-0.1c-0.9-0.19-1.83-0.38-2.71-0.61c-0.66-0.19-1.54-0.43-2.42-0.61
		c-0.6-0.16-1.27-0.18-1.96-0.06c-0.6,0.11-1.22,0.22-1.82,0.39c-1.09,0.27-2.23,0.54-3.41,0.83c-1.23,0.32-2.58,0.32-3.8,0
		c-0.59-0.18-1.12-0.29-1.59-0.38c-0.19-0.06-0.38-0.06-0.56-0.06c-0.06,0-0.25,0.02-0.25,0.3l0.02,0.09
		C106.42,201.28,106.48,201.4,106.56,201.47z"/>
	<path class="st0" d="M142.62,201.78c0.02,0.03,0.04,0.08,0.08,0.12c0.21,0.27,0.5,0.51,0.82,0.71c0.39,0.22,0.78,0.45,1.23,0.62
		c0.78,0.33,1.63,0.49,2.55,0.49c0.26,0,0.53-0.01,0.81-0.04c0.16-0.03,0.34-0.05,0.52-0.08c0.18-0.03,0.36-0.06,0.53-0.08
		c0.52-0.11,1.06-0.23,1.6-0.36c0.54-0.12,1.07-0.25,1.6-0.36c1.21-0.3,2.54-0.34,3.92-0.11c0.6,0.15,1.2,0.25,1.78,0.35
		c0.29,0.05,0.58,0.1,0.88,0.15l0.14,0.02c0.61,0.1,1.19,0.2,1.81,0.2c0.62,0,1.18-0.07,1.8-0.22c0.75-0.15,1.59-0.5,2.43-1.02
		c0.32-0.21,0.6-0.48,0.92-0.86l0.04-0.05v-0.02c0.03-0.03,0.05-0.09,0.05-0.16l-0.02-0.09c-0.03-0.07-0.13-0.22-0.28-0.22
		c-0.18,0-0.36,0-0.55,0.06c-0.88,0.28-1.71,0.44-2.55,0.6c-0.48,0.05-1.02,0.05-1.55,0c-0.75-0.11-1.53-0.22-2.24-0.38l-3.08-0.66
		c-1.16-0.24-2.27-0.21-3.28,0.11c-0.52,0.14-1.03,0.28-1.54,0.41c-0.51,0.14-1.02,0.28-1.55,0.42c-0.6,0.2-1.3,0.37-2,0.49
		c-0.69,0.11-1.39,0.11-2.08,0l-1.86-0.38c-0.23-0.06-0.46-0.12-0.71-0.12c-0.16,0-0.3,0.14-0.3,0.3l0.02,0.11L142.62,201.78z"/>
	<path class="st0" d="M110.95,149.6c0.94,1.32,2.37,2.09,3.96,2.04c1.1,0,2.2-0.38,3.08-1.05c1.16-0.83,1.82-2.15,1.87-3.58
		c0-0.71-0.11-1.43-0.44-2.04c-0.33-0.77-0.93-1.43-1.71-1.82c-0.77-0.39-1.65-0.5-2.53-0.39c-0.99,0.11-1.93,0.71-2.48,1.6
		c-0.08,0.13-0.21,0.22-0.29,0.31c-0.04,0.04-0.11,0.07-0.16,0.07c0-0.13,0.02-0.22,0.02-0.33c0.05-0.72,0.16-1.49,0.33-2.2
		c0.39-1.49,1.1-2.92,2.09-4.07c0.44-0.55,1.05-1.05,1.65-1.43l0.27-0.22l0.06-0.05c0.11-0.11,0.11-0.28,0-0.39
		c-0.06-0.05-0.11-0.05-0.17-0.05c-0.06,0-0.17,0-0.22,0.05c-1.6,0.72-2.97,1.71-4.13,3.03c-1.87,2.2-2.7,5.06-2.25,7.92
		C110.07,147.95,110.4,148.83,110.95,149.6z M112.6,146.63c0.11-0.61,0.33-1.21,0.72-1.71c0.16-0.27,0.38-0.49,0.6-0.66
		c0.77-0.55,1.82-0.5,2.53,0.11c0.33,0.28,0.61,0.66,0.77,1.1c0.22,0.55,0.33,1.04,0.33,1.59v0.28c0.06,0.61-0.11,1.27-0.27,1.71
		c-0.17,0.39-0.39,0.72-0.72,0.99c-0.39,0.33-0.83,0.49-1.32,0.55c-0.55,0.06-1.04-0.17-1.43-0.5c-0.22-0.16-0.39-0.38-0.55-0.6
		c-0.39-0.55-0.66-1.21-0.72-1.93C112.55,147.29,112.55,146.96,112.6,146.63z"/>
	<path class="st0" d="M101.6,139.76c0.05,0,0.17-0.06,0.22-0.06l1.38-0.44l0.33-0.11c0.05-0.05,0.16,0.06,0.16,0.11
		c0.05,0.22,0.05,0.39,0.05,0.61c0,1.71,0,3.41,0,5.12c0,1.59,0,3.19,0,4.79c0,0.05,0,0.17,0,0.28c0,0.33-0.16,0.66-0.38,0.93
		c-0.03,0.04-0.05,0.06-0.06,0.11c-0.01,0.11,0.11,0.16,0.17,0.16h2.97c0.11,0,0.14-0.09,0.11-0.16c-0.03-0.07-0.06-0.11-0.11-0.17
		c-0.22-0.22-0.27-0.5-0.27-0.77c0-0.06,0-0.11,0-0.17c0-1.59-0.06-3.14-0.06-4.73c0-0.66,0-1.32,0-1.98
		c0.06-1.43,0.06-2.81,0.06-4.24c0-0.88,0-1.82,0-2.7c0-0.05-0.06-0.16-0.06-0.27c0-0.05-0.11-0.11-0.17-0.05
		c-0.17,0.11-0.28,0.27-0.44,0.38c-0.44,0.33-0.82,0.77-1.26,1.1c-0.55,0.38-1.1,0.82-1.65,1.21c-0.33,0.22-0.6,0.44-0.94,0.66
		c-0.05,0.05-0.11,0.11-0.16,0.17C101.49,139.59,101.55,139.76,101.6,139.76z"/>
	<path class="st0" d="M163.02,144.1c0,0,0.2,0.07,0.33-0.05l0.28-0.27c0.49-0.5,1.1-0.83,1.82-0.99c0.49-0.11,1.04-0.11,1.59,0
		c1.05,0.17,1.87,0.94,2.2,1.93c0.11,0.27,0.16,0.61,0.16,0.94c0.05,0.55,0,1.1-0.11,1.65c-0.33,1.7-1.6,3.08-3.25,3.58
		c-0.72,0.22-1.49,0.28-2.2,0.16l-0.33-0.05c-0.05,0.05-0.11,0.11-0.11,0.17c0.05,0.11,0.05,0.22,0.11,0.38l0.17,0.17
		c0.05,0,0.16,0.05,0.22,0.05c0.94,0.11,1.82,0.11,2.7-0.11c1.93-0.39,3.58-1.65,4.51-3.41c0.72-1.32,0.88-2.86,0.39-4.29
		c-0.28-0.88-0.88-1.65-1.71-2.09c-1.1-0.66-2.48-0.83-3.74-0.44c-0.66,0.16-1.27,0.49-1.82,0.94c-0.17,0.11-0.28,0.22-0.39,0.33
		l-0.11,0.11c-0.05,0.06-0.23,0.13-0.22-0.11c0.05-0.84,0.17-2.48,0.22-3.41c0-0.11,0.02-0.23,0.05-0.33
		c0.05-0.11,0.16-0.22,0.27-0.22c0,0,5.67,0,5.83,0c0.09,0,0.21-0.03,0.22-0.33c0.11-0.61,0.22-1.16,0.39-1.71v-0.06
		c0.05-0.22-0.05-0.27-0.22-0.27c-0.44,0.11-0.88,0.11-1.32,0.11c-1.6,0-3.25,0-4.84,0c-0.88,0-0.83,0-0.88,0.82
		c-0.11,0.72-0.11,1.37-0.16,2.09l-0.22,3.58c-0.01,0.36-0.05,0.55-0.05,0.83C162.8,143.94,162.86,144.05,163.02,144.1z"/>
	<path class="st0" d="M151.86,138.82c0.05,0.11,0.17,0.11,0.22,0.06l0.61-0.5c0.38-0.28,0.77-0.5,1.21-0.66
		c0.77-0.27,1.54-0.33,2.31-0.11c0.71,0.17,1.26,0.83,1.32,1.54c0.16,0.83-0.05,1.65-0.61,2.26c-0.22,0.27-0.44,0.49-0.71,0.66
		c-0.44,0.33-0.88,0.55-1.38,0.77l-0.66,0.27c-0.11,0.06-0.17,0.17-0.11,0.28c0.05,0.05,0.05,0.17,0.11,0.22
		c0.06,0.11,0.22,0.16,0.33,0.11c0.22-0.11,0.44-0.16,0.66-0.22c0.5-0.11,0.94-0.11,1.43,0c0.88,0.11,1.65,0.72,1.98,1.54
		c0.11,0.27,0.17,0.6,0.22,0.88c0.05,0.44,0.05,0.93,0,1.38c-0.11,1.16-0.77,2.2-1.76,2.81c-0.33,0.22-0.72,0.39-1.1,0.5
		c-0.99,0.28-2.09,0.33-3.14,0.16l-0.66-0.11c-0.05,0-0.05,0.05-0.05,0.11c0,0.11,0,0.22,0,0.33c0,0.11,0.05,0.27,0.22,0.27
		c0.28,0.05,0.55,0.11,0.83,0.16c1.04,0.11,2.15,0,3.19-0.27c0.88-0.28,1.76-0.66,2.53-1.16c0.66-0.5,1.27-1.04,1.71-1.76
		c0.77-1.16,0.94-2.64,0.44-3.96c-0.22-0.77-0.77-1.43-1.49-1.82c-0.33-0.22-0.77-0.33-1.16-0.44c-0.28-0.06-0.6-0.17-0.88-0.22
		l-0.05-0.05v-0.05l0.49-0.33c0.44-0.27,0.77-0.66,1.1-1.04c0.49-0.66,0.72-1.49,0.6-2.31c-0.05-0.6-0.39-1.15-0.88-1.49
		c-0.28-0.16-0.55-0.33-0.88-0.44c-0.88-0.27-1.87-0.33-2.75-0.05c-1.32,0.33-2.48,1.15-3.3,2.25
		C151.69,138.55,151.69,138.66,151.86,138.82z"/>
	<path class="st0" d="M95.75,102.92v85.69c0,12.7,10.36,22.29,17.33,25.58c9.35,4.42,13.21,6.11,19.61,8.92l2.94,1.28
		c0.28,0.13,0.61,0.13,0.89,0l2.21-0.96c7.69-3.38,10.04-4.41,20.26-9.24c5.05-2.38,11.88-8.08,15.26-15.96
		c1.28-2.99,2.07-6.29,2.07-9.85V102.7c0-0.31-0.25-0.55-0.55-0.55H96.31C96,102.15,95.75,102.39,95.75,102.92z M174.25,160.68v3.04
		v4.37v0.41c-0.08,0.07-0.14,0.14-0.15,0.2c-0.44,0.28-1.71,1.21-2.16,1.48l-7.46,5.02l-0.33,0.2c-0.11,0.07-0.11,0.07-0.24-0.09
		c-0.13-0.16-0.21-0.39-0.29-0.62c-0.23-0.62-0.32-0.89-0.67-1.45c-0.99-1.78-2.18-3.21-3.96-4.24c-0.35-0.2-0.52-0.2,0.12-0.9
		l8.15-7.89h2.02l0,0l1.98,0h2.61c0.21,0,0.39,0.17,0.39,0.39V160.68z M149.27,191.23c-0.19-0.16-0.38-0.18-0.62-0.15
		c-0.23,0.02-0.46,0.1-0.69,0.18l-1.69,0.93l-3.01,1.51c-0.73,0.36-1.46,0.48-2.27,0.55l-0.78-0.05c-0.06,0.01-0.12-0.05-0.12-0.05
		c-0.04-0.19,0.15-0.25,0.15-0.25c1.11-0.63,2.16-1.31,3.28-1.94c0.55-0.34,1.11-0.69,1.66-1.09c0.5-0.34,0.93-0.73,1.37-1.06
		c0.27-0.26,0.54-0.52,0.69-0.82c0.05-0.12,0.04-0.24-0.09-0.34c-0.2-0.22-0.49-0.25-0.72-0.11c-0.27,0.2-0.55,0.34-0.83,0.49
		l-5.63,3.63c-0.33,0.21-0.72,0.42-1.05,0.63c-0.73,0.36-2.18,0.64-2.62,0.35c-0.16-0.1,0.09-0.24,0.2-0.31
		c0.56-0.29,1.12-0.57,1.68-0.86c0.77-0.49,1.21-0.87,1.63-1.16c0.6-0.39,1.11-0.85,1.65-1.32c0.98-0.85,1.83-1.81,2.55-2.81
		c0.21-0.25,0.29-0.44,0.44-0.69c0.05-0.12,0.11-0.35-0.02-0.4c-0.19-0.16-0.42-0.14-0.64,0c-0.27,0.2-0.55,0.4-0.82,0.6l-3.64,3.18
		c-0.22,0.2-0.44,0.33-0.65,0.53c-0.54,0.46-1.32,0.9-1.93,1.19l-2.43,1.21c-1.05,0.47-1.52,0.64-1.81,0.73
		c-0.28,0.09-0.79,0.1-1.14,0.08c-0.12,0.01-0.24-0.04-0.36-0.08c0,0-0.07-0.11-0.02-0.17c0.05-0.12,0.16-0.19,0.21-0.25
		c0.44-0.33,0.88-0.67,1.32-1c1.21-0.82,2.36-1.68,3.51-2.61c2.29-1.85,4.39-3.86,6.3-6.03c0.42-0.51,0.41-0.52,0.83-1.02
		c0.47-0.57,1.18-1.5,1.18-1.5c0.46-0.58-0.09-1.04-0.58-1c-0.12,0.01-2.13,0.62-3.15,1.01c-1.24,0.52-2.17,1.44-3.62,2.37
		c-0.41,0.26-1.46,0.92-1.91,1.09c-1.5,0.61-2.59-0.17-1.86-0.79c0,0,1.81-1.61,2.52-2.2c1.04-0.8,3.75-3.67,6.45-5.58
		c0.85-0.6,1.19-0.72,2.12-0.84c4.57-0.59,8.33-1.85,10.32-3.2c0.49-0.34,0.98-0.65,1.41-1.04c0.22-0.19,0.43-0.39,0.65-0.59
		c0.1-0.13,0.34-0.15,0.52-0.05c0.18,0.04,0.37,0.14,0.49,0.19c1.29,0.64,2.36,1.5,3.23,2.71c0.6,0.82,1.1,1.77,1.42,2.74
		c0.07,0.11,0.15,0.28,0.16,0.4c0.17,0.63,0.17,0.63-0.32,0.97c-1.97,1.47-3.67,3.33-5,5.44c-0.61,0.99-1.22,2.05-1.83,3.04
		l-2.55,4.16l-0.66,1.06c-0.61,0.99-1.37,1.85-2.44,2.3c-0.73,0.3-1.15,0.63-1.89,0.88c-0.45,0.16-0.97,0.32-1.48,0.49
		c-0.23,0.08-1.26,0.29-1.41,0.02c-0.09-0.15,0.2-0.25,0.31-0.31c0.84-0.43,1.77-1.08,2.62-1.45c0.67-0.32,0.89-0.51,1.32-0.84
		C149.33,191.67,149.46,191.39,149.27,191.23z M125.83,191.12l-3.33-19.27l25.64-4.49c0.11-0.02,0.22,0.06,0.24,0.2l1.01,4.67
		c-0.37,0.1-0.72,0.17-1,0.23c-1.04,0.19-4.42,0.71-4.94,0.82c-1.03,0.24-1.45,0.58-1.82,0.8c-1.29,0.79-3.75,3.1-4.98,4.04
		c-0.38,0.33-1.15,1.17-1.53,1.5c-1.23,1.13-3.17,2.9-3.43,3.21c-0.65,0.9-0.22,1.79,0.5,2.53c0.72,0.74,2.05,0.62,2.22,0.6
		c0.52-0.05,0.98-0.15,1.49-0.37c0.73-0.3,3.86-2.44,4.71-2.97l0.45-0.28c0.18-0.13,0.29-0.01,0.12,0.14
		c-0.15,0.14-0.29,0.3-0.29,0.3l-0.29,0.3c-0.96,1.03-1.98,2-3.01,2.91c-1.62,1.5-3.37,2.89-5.18,4.17
		c-0.57,0.46-1.19,0.88-1.77,1.34l-4.95,0.91C125.82,192.09,125.91,191.56,125.83,191.12z M123.74,192.36
		c-0.2,0.28-0.5,0.47-0.84,0.53l-0.19,0.03c-0.7,0.12-1.38-0.35-1.5-1.06l-3.07-17.75c0.23,0.13,0.47,0.2,0.7,0.2
		c0.17,0,0.35-0.01,0.53-0.04c0.57-0.07,1.14-0.28,1.51-0.73l3.07,17.84C124.01,191.73,123.94,192.07,123.74,192.36z M131.06,145.07
		c0.85,0.4,2.12,0.59,3.19,0.03c0.57-0.25,0.95-0.7,0.95-1.32c0-0.27-0.13-0.5-0.38-0.67l-0.56-0.25c-0.19-0.08-0.34-0.36-0.28-0.66
		c0.03-0.15,0.11-0.45,0.18-0.59c0.38-0.97,1.02-1.82,1.88-2.46l0.03-0.03l1.85,2.23c0.11,0.26,0.16,0.51,0.21,0.8
		c0.09,0.37-0.04,0.63-0.28,0.75c-0.04,0.03-0.08,0.03-0.11,0.05c-0.05,0.02-0.37,0.15-0.4,0.18c-0.38,0.22-0.46,0.54-0.34,0.93
		c0.12,0.41,0.36,0.73,0.75,0.99c1.11,0.64,2.36,0.49,3.34-0.01c0.12-0.07,0.31-0.18,0.44-0.32c0.26-0.26,0.4-0.5,0.4-0.88
		c0-0.13-0.01-0.24-0.03-0.35c-0.01-0.07-0.02-0.14-0.02-0.2c0-0.26,0.1-0.49,0.2-0.74c0.14-0.41,0.41-0.72,0.84-0.94
		c0.49-0.24,1.04-0.31,1.67-0.2c0.05,0,0.09,0.01,0.13,0.01l-0.05,0.1c-0.38,0.16-0.67,0.47-0.94,0.89
		c-0.06,0.11-0.14,0.18-0.18,0.28c-0.04,0.09-0.08,0.18-0.14,0.3c-0.28,0.61-0.45,1.3-0.51,2.01c-0.03,0.39-0.09,0.94-0.09,1.36
		l-0.34-0.03c-1.56-0.07-2.84-0.14-4.24-0.16c-0.84-0.01-1.69-0.05-2.52-0.05h-0.14l-3.95,0.16c0,0-1.81,0.04-2.03,0.05
		c-0.22,0.01-0.25-0.11-0.26-0.18c-0.03-0.26-0.04-0.52-0.06-0.77c-0.06-0.5-0.17-1.01-0.28-1.53l-0.07-0.2
		c-0.09-0.28-0.19-0.59-0.32-0.85c-0.2-0.55-0.61-1.02-1.11-1.29c0.52-0.09,1.05-0.03,1.51,0.16c0.61,0.26,1.24,0.83,1.25,1.39
		c0.02,0.51-0.09,0.48-0.09,0.84C130.16,144.49,130.83,144.96,131.06,145.07z M142.75,148.46c0,0.41-0.04,0.45-0.39,0.44
		c-0.35-0.02-1.56-0.15-2.21-0.19c-3-0.18-4.48-0.19-6.44-0.12c-2.3,0.08-3.66,0.27-3.66,0.27h-0.44c-0.14,0-0.18-0.27-0.18-0.46
		c0-0.21,0.01-0.43,0.01-0.61c0-0.09,0.08-0.14,0.17-0.14c0.09,0,2.23-0.11,2.23-0.11c0.32-0.02,0.65-0.04,0.97-0.07
		c0.66-0.05,0.91-0.09,2.27-0.11c2.06-0.03,4.07,0.02,5.11,0.08c1.05,0.07,2.31,0.2,2.31,0.2c0.22,0,0.23,0.09,0.23,0.09
		C142.75,147.78,142.75,148.35,142.75,148.46z M136.11,150.26c9.67,0,12.73,2.61,15.22,4.57c0.47,0.37,0.87,0.78,1.32,1.14
		c0.23,0.22,0.45,0.28,0.86,0.14c4.15-1.42,9.3-0.3,11.91,2.08c-10.67,0.01-47.38,0.01-58.62,0.01c2.79-2.41,7.95-3.51,12.1-2.09
		c0.41,0.11,0.62,0.06,0.86-0.14c0.45-0.36,0.85-0.77,1.32-1.14C123.48,152.92,126.43,150.26,136.11,150.26z M140.7,106.84
		c0-0.65,0.11-1.28,0.31-1.84c0.03-0.06,0.06-0.13,0.09-0.21c0.02-0.06,0.05-0.12,0.08-0.18l0.02-0.05
		c0.07-0.14,0.16-0.31,0.17-0.34h32c0.48,0,0.87,0.39,0.87,0.87v52.7c0,0.36-0.09,0.41-0.59,0.41h-5.31c0,0-0.11,0-0.29,0
		c-3.25-3.68-9.04-5.56-14.39-4.02c-0.16,0.05-0.34,0.01-0.47-0.11c-0.22-0.18-0.41-0.4-0.66-0.58c-2-1.55-4.07-3.21-8.23-4.22
		c-0.01-0.15-0.02-0.28-0.02-0.34v-3.17c0-0.66,0.11-1.36,0.33-2c0.05-0.25,0.15-0.51,0.28-0.72c0.03-0.03,0.07-0.09,0.11-0.14
		c0.02-0.03,0.04-0.06,0.06-0.08c0.05-0.06,0.2-0.1,0.27-0.08l0.31,0.16c0.16,0.11,0.28,0.16,0.38,0.22
		c0.11,0.09,0.26,0.09,0.39,0.09c0.43,0,0.74-0.3,0.74-0.74c0-0.34,0-0.63-0.12-0.99c-0.25-0.81-0.82-1.44-1.54-1.72
		c-0.88-0.38-1.9-0.42-2.94-0.12c-0.84,0.24-1.58,0.83-1.97,1.55c-0.06,0.08-0.03,0.16-0.07,0.25v-7.2c0.1,0,7.01-0.01,7.01-0.01
		c1.17,0.01,2.05,0.53,2.83,1c0.22,0.17,0.45,0.31,0.68,0.43c0.08,0.05,0.43,0.27,0.55,0.27c0.13,0,0.22-0.09,0.24-0.11
		c0.11-0.11,0.11-0.24,0.11-0.3v-0.55c0.06-3.09-0.01-8.42-0.01-10.52l-0.01-0.06c-0.05-0.16-0.19-0.22-0.26-0.25
		c-0.07-0.03-0.18-0.05-0.36,0.05c0,0-0.71,0.55-0.82,0.6c-0.77,0.52-1.63,0.8-2.61,0.85c-0.54,0.06-1.09,0.06-1.63,0.06h-4.43
		c-0.19,0-0.85-0.02-1.05-0.03c-0.21-0.01-0.22-0.26-0.22-0.47V121c0-0.23,0.09-0.28,0.28-0.28c0.19,0,3.72,0,3.72,0
		c0.94,0,1.9,0.26,2.71,0.74c0.28,0.17,0.53,0.3,0.86,0.46l0.22,0.11l0.13,0.05c0.16,0.07,0.37-0.08,0.42-0.28
		c0.05-0.15,0.04-0.49,0.04-0.57l-0.01-9.65v-0.51c0-0.28-0.22-0.34-0.36-0.32c-0.07,0.01-0.29,0.09-0.29,0.09
		c-0.29,0.11-0.58,0.28-0.86,0.45c-0.72,0.47-1.57,0.63-2.44,0.68c-0.82,0.05-1.66,0.05-2.46,0.05c0,0-1.27-0.01-1.55-0.01
		c-0.28,0-0.25-0.12-0.25-0.34V106.84z M132.99,104.47c0,0-0.05-0.14-0.05-0.26l6.26,0.03c-0.01,0.11-0.05,0.3-0.08,0.39
		c-0.22,0.76-0.34,1.66-0.34,2.99c0,0,0,5.45,0,5.56c0,0.11,0,0.28,0.14,0.41c0.14,0.14,0.34,0.14,0.73,0.14h4.43
		c0.51,0.05,1.07,0.01,1.7-0.11c0.34-0.05,0.62-0.11,0.94-0.22c0.07-0.01,0.12-0.02,0.18-0.03c0.04-0.01,0.09-0.02,0.12-0.02h0.03
		v5.97c-0.05-0.01-0.09-0.02-0.13-0.03c-0.05-0.01-0.11-0.02-0.17-0.05c-0.74-0.22-1.48-0.34-2.26-0.34h-4.92l-0.13,0.01
		c-0.61,0.05-0.65,0.16-0.65,0.84V127c0,0.21,0.19,0.36,0.36,0.36h4.57l3.79-0.06c0.73,0.05,1.48-0.04,2.27-0.28
		c0.14-0.04,0.22-0.07,0.3-0.1c0.11-0.04,0.16-0.01,0.15,0.08c-0.01,0.09,0.01,0.21,0.01,0.33v5.54c-0.01,0.06-0.05,0.06-0.08,0.05
		c-0.04-0.01-0.09-0.03-0.14-0.05l-0.08-0.03c-0.73-0.22-1.51-0.34-2.32-0.34h-7.75c-0.12,0-0.26-0.01-0.43-0.01
		c-0.4,0.01-0.59,0.23-0.61,0.42c-0.03,0.19-0.03,0.38-0.03,0.61v6.36c0,0-0.1-0.42-0.25-0.73c-0.18-0.37-1.06-1.22-1.68-1.63
		c-0.39-0.35-1.05-0.33-1.45-0.03c-0.61,0.41-1.06,0.79-1.64,1.5c-0.09,0.14-0.38,0.57-0.37,0.88v-7.05c0-0.21-0.24-0.35-0.41-0.35
		h-7.87c-0.51,0-0.94,0-1.43,0.06c-0.5,0-1,0.09-1.57,0.28c-0.07,0.02-0.16,0.05-0.16-0.06v-5.86c0.05,0.01,0.09,0.02,0.13,0.03
		c0.06,0.01,0.11,0.02,0.17,0.05c0.3,0.1,0.65,0.16,0.95,0.2l0.12,0.02c0.26,0.05,0.62,0.12,0.97,0.12h7.97
		c0.12,0,0.25-0.01,0.38-0.03c0.12-0.01,0.23-0.03,0.34-0.03c0.22,0,0.41-0.2,0.41-0.41v-7.53c0-0.13-0.13-0.28-0.26-0.34
		c-0.11-0.08-0.2-0.08-0.26-0.08h-4.95c-1.04,0-2.02,0.21-2.73,0.39l-0.24,0.05h-0.03v-5.99l0.3,0.05c0.72,0.22,1.47,0.34,2.2,0.34
		h4.88c0.23,0,0.47,0,0.75-0.08c0.12-0.06,0.32-0.16,0.32-0.4v-5.81C133.43,106.54,133.3,105.53,132.99,104.47z M97.82,105.09
		c0-0.48,0.39-0.87,0.87-0.87h31.95c0.03,0.03,0.13,0.13,0.16,0.2c0.04,0.08,0.08,0.15,0.11,0.24c0.25,0.61,0.38,1.18,0.38,1.71
		c0.05,0.49,0.05,0.98,0.05,1.47v3.87c0,0.28-0.03,0.36-0.24,0.36h-3.23c-0.5,0-0.92-0.06-1.39-0.16c-0.69-0.16-1.34-0.43-1.92-0.8
		c-0.13-0.08-0.26-0.16-0.38-0.24c-0.13-0.09-0.25-0.17-0.36-0.22c-0.11-0.11-0.24-0.11-0.3-0.11c-0.19,0-0.26,0.09-0.29,0.16
		c-0.07,0.11-0.07,0.24-0.07,0.3c0,0,0,10.54,0,10.6c0,0.05,0.01,0.08,0.01,0.09c0.09,0.3,0.4,0.24,0.49,0.19
		c0,0,0.18-0.08,0.24-0.13l0.92-0.49c0.79-0.45,1.65-0.62,2.49-0.62h3.95c0.14,0,0.25-0.01,0.25,0.12c0.05,1.27,0.04,4.04,0.03,4.7
		c0,0.1-0.09,0.18-0.18,0.18h-7.07c-0.84,0-1.75-0.27-2.48-0.74c0,0-1.12-0.64-1.14-0.65c-0.06-0.02-0.11-0.03-0.17-0.04
		c-0.26-0.02-0.36,0.18-0.36,0.36v10.66c0,0.2,0.24,0.3,0.36,0.3c0.07,0,0.22,0,0.32-0.09c0.32-0.16,0.66-0.33,0.97-0.54
		c0.88-0.47,1.71-0.69,2.55-0.69H131l0.52,0.03v7.55c-0.01-0.01-0.01-0.03-0.02-0.04c-0.03-0.07-0.07-0.14-0.11-0.24
		c-0.45-1.03-1.44-1.75-2.62-1.93c-0.74-0.11-1.5-0.05-2.17,0.17c-0.83,0.24-1.55,0.95-1.78,1.77c-0.15,0.44-0.14,0.9-0.11,1.1
		l0.07,0.23c0.08,0.21,0.2,0.29,0.38,0.38c0.19,0.09,0.4,0.1,0.59,0.02c0.05-0.03,0.11-0.05,0.18-0.08
		c0.07-0.03,0.14-0.06,0.18-0.08c0.11-0.03,0.19-0.09,0.26-0.12c0.06-0.04,0.12-0.07,0.16-0.09c0.18-0.04,0.24,0.02,0.31,0.12
		c0.14,0.14,0.24,0.34,0.35,0.54c0.14,0.34,0.32,0.78,0.37,1.22c0.05,0.32,0.11,0.65,0.11,0.96c0,0,0,3.5,0,3.59v0.05
		c-4.08,1.04-5.99,2.7-7.82,4.14c-0.17,0.14-0.33,0.3-0.49,0.43c-0.23,0.2-0.55,0.27-0.85,0.19c-5.3-1.44-11.17,0.45-14.37,4.09
		h-5.38c-0.86,0-0.94-0.22-0.94-0.94V105.09z M97.82,160.87c0-0.49,0.08-0.65,0.53-0.65l63.39-0.01l0,0h2.93
		c-2.56,2.59-6.84,6.74-7.6,7.4c-1.47,1.26-2.98,2.46-4.54,3.37c-0.37,0.22-0.76,0.41-1.16,0.58l-0.86-4.1
		c-0.22-1.25-1.42-2.09-2.67-1.88l-26.45,4.57l0,0.01c-0.49,0.07-0.88,0.49-0.9,1c-0.03,1.14-0.75,1.4-1.35,1.48
		c-0.19,0.03-1.04,0.24-1.42-0.91c-0.18-0.55-0.63-0.89-1.19-0.72c-0.46,0.14-0.75,0.57-0.74,1.03c0,0.01,0,0.02,0,0.02
		c0,0.03,0,0.06,0.01,0.08c0,0.04,0,0.07,0.01,0.11l3.4,19.71c0.29,1.65,1.6,2.85,3.22,2.85c0.19,0,0.39-0.02,0.58-0.05l0.19-0.03
		c0.1-0.02,0.28-0.05,0.28-0.05l5.7-1.03c0.04,0.48,0.3,0.79,0.36,0.81c0.51,0.42,1.12,0.66,1.76,0.66
		c0.47,0.01,0.99-0.03,1.45-0.19l0.45-0.16c0.29-0.09,0.58-0.05,0.88,0.04l0.24,0.09c0.67,0.23,1.32,0.44,1.96,0.38l0.81-0.07
		c0.29-0.03,0.59,0.01,0.84,0.16c0.67,0.29,1.39,0.46,2.09,0.45c0.53,0.01,1.11-0.04,1.63-0.15c0.52-0.11,1.1-0.16,1.63-0.09
		c1.24,0.06,2.66,0.27,3.87,0.04c0.58-0.11,1.15-0.28,1.72-0.45l1.71-0.57c0.29-0.09,0.51-0.22,0.79-0.37
		c0.94-0.56,1.77-1.58,2.39-2.52l0.3-0.5c1.58-2.61,3.01-5.22,4.59-7.83c0.72-1.12,1.5-2.13,2.42-3.03c0.91-0.91,1.89-1.76,3-2.45
		l9.69-6.88c0.14-0.11,0.32-0.23,0.47-0.3v1.94v3.22v12.49c0,11.96-9.65,20.86-16.14,23.93c-10.2,4.82-13.7,6.35-21.38,9.73
		l-0.32,0.14c-0.22,0.09-0.46,0.09-0.67,0l-2.23-0.97c-6.38-2.8-10.23-4.48-19.56-8.89c-6.49-3.07-16.14-11.97-16.14-23.93V160.87z"
		/>
</svg>
